# xmcd CD database file
#
# Track frame offsets:
#	150
#	12919
#	25635
#	40251
#	52925
#	68372
#	77722
#	91335
#	104897
#	119921
#	138306
#	148660
#	165537
#	179542
#	190602
#	205470
#
# Disc length: 3151 seconds
#
# Revision: 0
# Processed by: cddbd v1.5.1PL2 Copyright (c) Steve Scherf et al.
# Submitted via: CDex 1.51
#
DISCID=dc0c4d10
DTITLE=Mjölby Storband and Stadsmusikkår - Musik Mellan Broarna
DYEAR=2004
DGENRE=Jazz
TTITLE0=Swingin' on a Star
TTITLE1=You Don't Have to Say You Love Me
TTITLE2=Delilah
TTITLE3=Help Yourself
TTITLE4=I've Got You under My Skin
TTITLE5=It's not Unusual
TTITLE6=Come Fly with Me
TTITLE7=They Can't Take That Away from Me
TTITLE8=For Once in My Life
TTITLE9=Close Enough
TTITLE10=I've Got the World on a String
TTITLE11=Come Rain or Come Shine
TTITLE12=What Now My Love
TTITLE13=My Kind of Town
TTITLE14=Överste Gustaf Bouveng Marsch
TTITLE15=La Marcia Azzurro
EXTD=YEAR: 2004
EXTT0=
EXTT1=
EXTT2=
EXTT3=
EXTT4=
EXTT5=
EXTT6=
EXTT7=
EXTT8=
EXTT9=
EXTT10=
EXTT11=
EXTT12=
EXTT13=
EXTT14=
EXTT15=
PLAYORDER=
